<svg xmlns="http://www.w3.org/2000/svg" viewBox="0 0 481.86 401.68"><defs><style>.cls-1{fill:#786464;stroke:#786464;}.cls-1,.cls-2,.cls-3,.cls-4,.cls-5,.cls-6,.cls-7,.cls-8{stroke-miterlimit:10;}.cls-2,.cls-3,.cls-5,.cls-8{fill:none;}.cls-2,.cls-3{stroke:#ef7b74;}.cls-2{stroke-width:19px;}.cls-3,.cls-4,.cls-5{stroke-width:18px;}.cls-4,.cls-6,.cls-7{fill:#ef7a6f;}.cls-4,.cls-5,.cls-6,.cls-7{stroke:#ef7a6f;}.cls-6{stroke-width:4px;}.cls-8{stroke:#ef7b72;stroke-width:20px;}</style></defs><g id="Capa_4" data-name="Capa 4"><path class="cls-1" d="M678.56,141.28c-1.7-2.26-1.8-6.49-2.72-6.31-8,1.54-83,1.49-94.8,1.35-2.43,0-8.21-.17-12.7,3.61-3.51,2.95-4.85,7.15-5.42,10.23a2.68,2.68,0,0,1-.07.27l-21.52,64.72c-.1.28-.18.56-.27.85-.94,3.35-2.79,7.65-6.75,10.52a18.62,18.62,0,0,1-11,3.19c-9.85.09-117.06.51-266.58.87A14.66,14.66,0,0,0,242.88,250q8,23.06,16.73,46.76c8,21.6,15.24,43.71,23.42,64.08,2.25,4.9,9.5,16.45,18,17.8,1.25.2,5,.54,8.92.68,4.64.18,8.06,0,8.7,0,5.07-.18,48.68-.24,170.58,0a18.86,18.86,0,0,0,5.28-.74,54.67,54.67,0,0,0,17.81-8.84c11.15-8.43,16.17-19.36,18.77-25.54,8.42-20,30.91-84.09,58.61-171.92a16.92,16.92,0,0,1,1.91-4.17,14.06,14.06,0,0,1,4-4.09,14.9,14.9,0,0,1,7.33-2.28c6.31-.44,27.41-.72,56.24-.48a14.63,14.63,0,0,0,6.69-1.54c3.2-1.63,6.67-5.26,10.32-10.3C678.56,146.24,682.64,146.69,678.56,141.28Z" transform="translate(-202.86 -105.89)"/></g><g id="Capa_3" data-name="Capa 3"><path class="cls-2" d="M672,127l-.75-1.37c-3.44-6.23-10.69-10.2-18.64-10.2H565.89c-6.41,0-12.13,3.48-14.34,8.71L548.63,131l-21,65.71c-3.16,4.56-4.2,7.3-13.48,8.3l-89.59,0L364,205l-118.72,0a48.62,48.62,0,0,0-23.54,6.23,17.13,17.13,0,0,0-8.38,10.57h0a33.39,33.39,0,0,0,1,19.6L250.6,341.55a70.26,70.26,0,0,0,9.76,18l1.05,1.4a62,62,0,0,0,17.72,15.9h0a47.06,47.06,0,0,0,24.25,6.6H479.53a45,45,0,0,0,22.22-5.78l4.36-2.5A41.69,41.69,0,0,0,521.65,360l7.05-12.26a15.5,15.5,0,0,0,1.21-2.62l28.31-79.48,28.2-89,1.52-4.41c1.59-4.6,6.46-7.75,12-7.75h50.29c7.73,0,14.95-3.38,19.21-9l.39-.52A25.29,25.29,0,0,0,672,127Z" transform="translate(-202.86 -105.89)"/></g><g id="Capa_7" data-name="Capa 7"><path class="cls-3" d="M389.8,153.64c.2,52.36-.65,159.13-.36,155.88" transform="translate(-202.86 -105.89)"/><path class="cls-3" d="M389.43,139c.07,2.56.14,5.13.2,7.69" transform="translate(-202.86 -105.89)"/><path class="cls-3" d="M389.3,125.41q0,3.48.08,7" transform="translate(-202.86 -105.89)"/></g><g id="Capa_8" data-name="Capa 8"><path class="cls-4" d="M388.73,310.79" transform="translate(-202.86 -105.89)"/><path class="cls-5" d="M389.94,310.12c-14-16.42-16-18.44-40.39-47.84" transform="translate(-202.86 -105.89)"/><circle class="cls-6" cx="147.37" cy="157.31" r="7.05"/></g><g id="Capa_8_copia" data-name="Capa 8 copia"><path class="cls-4" d="M388.73,310.79" transform="translate(-202.86 -105.89)"/><path class="cls-5" d="M388.58,310.12c13.7-15.71,13.7-15.71,40.39-47.84" transform="translate(-202.86 -105.89)"/><ellipse class="cls-7" cx="226.35" cy="156.04" rx="8.43" ry="8.64"/></g><g id="Capa_6" data-name="Capa 6"><path class="cls-1" d="M343,478.89c-9.74-3.63,5.86-8.54,5-16.68-.9-8.61-17.53-21.26-9.83-25.48,1.44-.79,3.75-1.81,3.61-2.92-.25-2-11.85-2.16-16.07-.95-1.5.43-20.57,11.78-19.5,30.64,1,17.78,14.79,27,20.63,28,8.27,1.39,19.13-6,18.7-9.86C345.41,480.44,344.22,479.54,343,478.89Z" transform="translate(-202.86 -105.89)"/><circle class="cls-8" cx="108.34" cy="357.77" r="33.91"/></g><g id="Capa_6_copia" data-name="Capa 6 copia"><path class="cls-1" d="M505.29,475.52c-9.74-3.63,5.86-8.54,5-16.68-.9-8.61-17.53-21.26-9.83-25.48,1.44-.79,3.75-1.81,3.61-2.92-.25-2-11.85-2.16-16.06-.95-1.5.43-20.58,11.78-19.5,30.64,1,17.78,14.78,27,20.62,28,8.28,1.39,19.13-6,18.7-9.86C507.71,477.07,506.52,476.17,505.29,475.52Z" transform="translate(-202.86 -105.89)"/><circle class="cls-8" cx="270.64" cy="354.4" r="33.91"/></g></svg>